<?xml version="1.0" encoding="iso-8859-1"?>
<!-- Uploaded to: SVG Repo, www.svgrepo.com, Generator: SVG Repo Mixer Tools -->
<svg height="800px" width="800px" version="1.1" id="Layer_1" xmlns="http://www.w3.org/2000/svg" xmlns:xlink="http://www.w3.org/1999/xlink" 
	 viewBox="0 0 390.206 390.206" xml:space="preserve">
<polygon style="fill:#56ACE0;" points="349.026,81.616 41.18,81.616 195.103,208.97 "/>
<path style="fill:#FFFFFF;" d="M188.057,231.208L21.657,93.511v203.766c0,5.947,4.848,10.861,10.861,10.861h325.172
	c5.948,0,10.861-4.849,10.861-10.861V93.511l-166.4,137.697C199.952,233.341,194.586,236.057,188.057,231.208z"/>
<path style="fill:#194F82;" d="M357.689,59.895H32.517C14.61,59.895,0,74.505,0,92.412v205.382c0,17.907,14.61,32.517,32.517,32.517
	h325.172c17.907,0,32.517-14.61,32.517-32.517V92.477C390.206,74.57,375.596,59.895,357.689,59.895z M368.549,297.277
	c0,5.947-4.849,10.861-10.861,10.861H32.517c-5.947,0-10.861-4.849-10.861-10.861V93.511l166.4,137.632
	c6.529,4.848,11.895,1.616,14.093,0l166.4-137.632V297.277z M349.026,81.616L195.103,208.97L41.18,81.616
	C41.18,81.616,349.026,81.616,349.026,81.616z"/>
<path style="fill:#FFC10D;" d="M220.057,252.865c-14.093,11.895-35.232,11.895-49.325,0L43.378,147.749v50.424h37.366
	c5.947,0,10.861,4.848,10.861,10.861c0,5.947-4.848,10.861-10.861,10.861H43.378v21.657h15.709c5.947,0,10.861,4.848,10.861,10.861
	c0,5.947-4.848,10.861-10.861,10.861H43.378v23.273h303.515V147.749L220.057,252.865z"/>
</svg>